  0
SECTION
  2
BLOCKS
  0
ENDSEC
  0
SECTION
  2
ENTITIES
  0
LINE
  8
0
 10
-16.1
 20
21.5
 11
-16.1626
 21
21.496
  0
LINE
  8
0
 10
-16.1626
 20
21.496
 11
-16.2243
 21
21.4843
  0
LINE
  8
0
 10
-16.2243
 20
21.4843
 11
-16.284
 21
21.4649
  0
LINE
  8
0
 10
-16.284
 20
21.4649
 11
-16.3409
 21
21.4381
  0
LINE
  8
0
 10
-16.3409
 20
21.4381
 11
-16.3939
 21
21.4045
  0
LINE
  8
0
 10
-16.3939
 20
21.4045
 11
-16.4423
 21
21.3645
  0
LINE
  8
0
 10
-16.4423
 20
21.3645
 11
-16.4852
 21
21.3187
  0
LINE
  8
0
 10
-16.4852
 20
21.3187
 11
-16.5221
 21
21.2679
  0
LINE
  8
0
 10
-16.5221
 20
21.2679
 11
-16.5524
 21
21.2129
  0
LINE
  8
0
 10
-16.5524
 20
21.2129
 11
-16.5755
 21
21.1545
  0
LINE
  8
0
 10
-16.5755
 20
21.1545
 11
-16.5911
 21
21.0937
  0
LINE
  8
0
 10
-16.5911
 20
21.0937
 11
-16.599
 21
21.0314
  0
LINE
  8
0
 10
-16.599
 20
21.0314
 11
-16.599
 21
20.9686
  0
LINE
  8
0
 10
-16.599
 20
20.9686
 11
-16.5911
 21
20.9063
  0
LINE
  8
0
 10
-16.5911
 20
20.9063
 11
-8.48428
 21
-21.1243
  0
LINE
  8
0
 10
-8.48428
 20
-21.1243
 11
-8.46487
 21
-21.1841
  0
LINE
  8
0
 10
-8.46487
 20
-21.1841
 11
-8.43814
 21
-21.2409
  0
LINE
  8
0
 10
-8.43814
 20
-21.2409
 11
-8.4045
 21
-21.2939
  0
LINE
  8
0
 10
-8.4045
 20
-21.2939
 11
-8.36447
 21
-21.3423
  0
LINE
  8
0
 10
-8.36447
 20
-21.3423
 11
-8.31871
 21
-21.3853
  0
LINE
  8
0
 10
-8.31871
 20
-21.3853
 11
-8.2679
 21
-21.4221
  0
LINE
  8
0
 10
-8.2679
 20
-21.4221
 11
-8.21288
 21
-21.4524
  0
LINE
  8
0
 10
-8.21288
 20
-21.4524
 11
-8.1545
 21
-21.4755
  0
LINE
  8
0
 10
-8.1545
 20
-21.4755
 11
-8.09369
 21
-21.4911
  0
LINE
  8
0
 10
-8.09369
 20
-21.4911
 11
-8.03139
 21
-21.499
  0
LINE
  8
0
 10
-8.03139
 20
-21.499
 11
8.03139
 21
-21.499
  0
LINE
  8
0
 10
8.03139
 20
-21.499
 11
8.09369
 21
-21.4911
  0
LINE
  8
0
 10
8.09369
 20
-21.4911
 11
8.1545
 21
-21.4755
  0
LINE
  8
0
 10
8.1545
 20
-21.4755
 11
8.21288
 21
-21.4524
  0
LINE
  8
0
 10
8.21288
 20
-21.4524
 11
8.2679
 21
-21.4221
  0
LINE
  8
0
 10
8.2679
 20
-21.4221
 11
8.31871
 21
-21.3853
  0
LINE
  8
0
 10
8.31871
 20
-21.3853
 11
8.36447
 21
-21.3423
  0
LINE
  8
0
 10
8.36447
 20
-21.3423
 11
8.4045
 21
-21.2939
  0
LINE
  8
0
 10
8.4045
 20
-21.2939
 11
8.43814
 21
-21.2409
  0
LINE
  8
0
 10
8.43814
 20
-21.2409
 11
8.46487
 21
-21.1841
  0
LINE
  8
0
 10
8.46487
 20
-21.1841
 11
8.48428
 21
-21.1243
  0
LINE
  8
0
 10
8.48428
 20
-21.1243
 11
16.5911
 21
20.9063
  0
LINE
  8
0
 10
16.5911
 20
20.9063
 11
16.599
 21
20.9686
  0
LINE
  8
0
 10
16.599
 20
20.9686
 11
16.599
 21
21.0314
  0
LINE
  8
0
 10
16.599
 20
21.0314
 11
16.5911
 21
21.0937
  0
LINE
  8
0
 10
16.5911
 20
21.0937
 11
16.5755
 21
21.1545
  0
LINE
  8
0
 10
16.5755
 20
21.1545
 11
16.5524
 21
21.2129
  0
LINE
  8
0
 10
16.5524
 20
21.2129
 11
16.5221
 21
21.2679
  0
LINE
  8
0
 10
16.5221
 20
21.2679
 11
16.4852
 21
21.3187
  0
LINE
  8
0
 10
16.4852
 20
21.3187
 11
16.4423
 21
21.3645
  0
LINE
  8
0
 10
16.4423
 20
21.3645
 11
16.3939
 21
21.4045
  0
LINE
  8
0
 10
16.3939
 20
21.4045
 11
16.3409
 21
21.4381
  0
LINE
  8
0
 10
16.3409
 20
21.4381
 11
16.284
 21
21.4649
  0
LINE
  8
0
 10
16.284
 20
21.4649
 11
16.2243
 21
21.4843
  0
LINE
  8
0
 10
16.2243
 20
21.4843
 11
16.1626
 21
21.496
  0
LINE
  8
0
 10
16.1626
 20
21.496
 11
16.1
 21
21.5
  0
LINE
  8
0
 10
16.1
 20
21.5
 11
-16.1
 21
21.5
  0
ENDSEC
  0
SECTION
  2
OBJECTS
  0
DICTIONARY
  0
ENDSEC
  0
EOF
